<svg xmlns="http://www.w3.org/2000/svg" version="1.1" xmlns:xlink="http://www.w3.org/1999/xlink" xmlns:svgjs="http://svgjs.dev/svgjs" width="1440" height="560" preserveAspectRatio="none" viewBox="0 0 1440 560"><g mask="url(&quot;#SvgjsMask1032&quot;)" fill="none"><rect width="1440" height="560" x="0" y="0" fill="rgba(0, 189, 126, 1)"></rect><path d="M471.81 142.31 a101.71 101.71 0 1 0 203.42 0 a101.71 101.71 0 1 0 -203.42 0z" fill="rgba(255, 255, 255, 0.4)" class="triangle-float2"></path><path d="M460.92 326.54 a140.73 140.73 0 1 0 281.46 0 a140.73 140.73 0 1 0 -281.46 0z" fill="rgba(255, 255, 255, 0.4)" class="triangle-float1"></path><path d="M1218.13 247.09 a186.61 186.61 0 1 0 373.22 0 a186.61 186.61 0 1 0 -373.22 0z" fill="rgba(255, 255, 255, 0.4)" class="triangle-float2"></path><path d="M168.64 304.32 a152.72 152.72 0 1 0 305.44 0 a152.72 152.72 0 1 0 -305.44 0z" fill="rgba(255, 255, 255, 0.4)" class="triangle-float2"></path><path d="M-38.17 61.01 a119.75 119.75 0 1 0 239.5 0 a119.75 119.75 0 1 0 -239.5 0z" fill="rgba(255, 255, 255, 0.4)" class="triangle-float3"></path><path d="M687.56 477.32 a151.67 151.67 0 1 0 303.34 0 a151.67 151.67 0 1 0 -303.34 0z" fill="rgba(255, 255, 255, 0.4)" class="triangle-float1"></path><path d="M1089.79 321.12 a166.94 166.94 0 1 0 333.88 0 a166.94 166.94 0 1 0 -333.88 0z" fill="rgba(255, 255, 255, 0.4)" class="triangle-float3"></path></g><defs><mask id="SvgjsMask1032"><rect width="1440" height="560" fill="#ffffff"></rect></mask><style>
                @keyframes float1 {
                    0%{transform: translate(0, 0)}
                    50%{transform: translate(-10px, 0)}
                    100%{transform: translate(0, 0)}
                }

                .triangle-float1 {
                    animation: float1 5s infinite;
                }

                @keyframes float2 {
                    0%{transform: translate(0, 0)}
                    50%{transform: translate(-5px, -5px)}
                    100%{transform: translate(0, 0)}
                }

                .triangle-float2 {
                    animation: float2 4s infinite;
                }

                @keyframes float3 {
                    0%{transform: translate(0, 0)}
                    50%{transform: translate(0, -10px)}
                    100%{transform: translate(0, 0)}
                }

                .triangle-float3 {
                    animation: float3 6s infinite;
                }
            </style></defs></svg>